<svg version="1.1" id="Layer_1" xmlns="http://www.w3.org/2000/svg" xmlns:xlink="http://www.w3.org/1999/xlink" x="0px" y="0px"
	 width="100%" viewBox="0 0 888 214" enable-background="new 0 0 888 214" xml:space="preserve">
<path fill="#FFFEFE" opacity="1.000000" stroke="none" 
	d="
M657.000000,215.000000 
	C438.049561,215.000000 219.599106,215.000000 1.074332,215.000000 
	C1.074332,143.732468 1.074332,72.464836 1.074332,1.098599 
	C296.999969,1.098599 593.000000,1.098599 888.973633,1.098599 
	C888.973633,72.400864 888.973633,143.700439 888.973633,215.000000 
	C811.798157,215.000000 734.649109,215.000000 657.000000,215.000000 
M851.901001,122.520401 
	C860.360046,118.357903 866.578247,112.156845 869.092468,102.873306 
	C871.859436,92.656822 872.485596,82.569778 865.133240,72.768402 
	C871.594055,72.768402 877.169006,72.768402 882.707642,72.768402 
	C882.707642,66.707542 882.707642,61.151169 882.707642,55.198315 
	C880.349731,55.198315 878.376953,55.248039 876.407410,55.190430 
	C860.943176,54.738064 845.480103,53.952641 830.015503,53.924992 
	C821.772888,53.910255 813.283020,54.175037 805.330139,56.084850 
	C781.984314,61.691151 773.363403,79.566360 778.022034,102.147171 
	C779.649902,110.037796 784.913208,115.599068 791.379456,120.514503 
	C785.176758,125.577347 778.232788,129.598007 777.972168,138.527390 
	C777.713013,147.405685 782.867065,152.788513 790.532166,157.061264 
	C787.638000,158.282913 785.492859,159.102036 783.422058,160.078827 
	C777.396118,162.921219 772.264404,166.732529 769.727539,173.218872 
	C765.309875,184.514328 771.138062,196.341751 783.778992,201.746628 
	C798.084106,207.863037 813.166138,208.413910 828.393433,208.022568 
	C841.868835,207.676254 854.822571,205.418625 866.727173,198.590347 
	C882.710083,189.422791 888.367615,166.787094 877.965149,152.124634 
	C871.487122,142.993607 861.520996,140.540359 851.182800,140.056808 
	C839.375610,139.504578 827.527527,139.867661 815.699280,139.695572 
	C812.385925,139.647354 809.010803,139.428116 805.788696,138.720169 
	C802.269104,137.946838 800.056396,133.762558 801.299438,130.473358 
	C802.514832,127.257217 804.468994,125.645805 808.598511,126.483177 
	C823.093140,129.422348 837.398621,128.528610 851.901001,122.520401 
M397.820099,148.499969 
	C397.820099,168.569809 397.820099,188.639664 397.820099,208.772308 
	C406.915375,208.772308 415.341370,208.772308 424.294434,208.772308 
	C424.294434,196.020554 424.294434,183.483963 424.294434,169.995636 
	C436.486847,176.229553 448.708069,177.492630 461.300812,176.011093 
	C480.467682,173.756088 494.436279,164.379944 500.983002,145.811554 
	C508.184937,125.384903 507.874817,104.484360 501.891815,83.958031 
	C497.536499,69.015862 487.600769,58.551731 471.809967,55.004494 
	C454.892456,51.204147 439.102051,53.428600 425.215759,64.627007 
	C424.905853,64.876945 424.354126,64.827042 423.265564,65.050148 
	C423.265564,61.745892 423.265564,58.707874 423.265564,55.501060 
	C414.560089,55.501060 406.474091,55.501060 397.820007,55.501060 
	C397.820007,86.329468 397.820007,116.914719 397.820099,148.499969 
M140.656693,5.278752 
	C138.566940,5.278752 136.477188,5.278752 134.508759,5.278752 
	C134.508759,62.093269 134.508759,118.131142 134.508759,174.252213 
	C143.448761,174.252213 152.038239,174.252213 160.931274,174.252213 
	C160.931274,172.142715 160.931290,170.329849 160.931290,168.516968 
	C160.931290,141.033203 160.985992,113.549171 160.856216,86.066017 
	C160.841385,82.927917 161.707870,81.279312 164.704376,80.187157 
	C174.215363,76.720673 183.883789,74.809128 194.055405,75.895691 
	C203.206329,76.873215 207.074509,80.695175 207.773819,89.869507 
	C207.925430,91.858795 207.890961,93.864548 207.891541,95.862724 
	C207.898605,120.181694 207.896194,144.500656 207.896240,168.819626 
	C207.896240,170.594742 207.896225,172.369858 207.896225,174.131134 
	C217.153717,174.131134 225.861053,174.131134 234.773529,174.131134 
	C234.773529,146.902679 234.805344,120.092865 234.744186,93.283264 
	C234.733200,88.461937 234.512070,83.626236 234.088669,78.823555 
	C232.939880,65.792641 225.576797,57.441925 212.705002,54.689793 
	C195.762253,51.067242 180.036667,54.517281 165.302917,63.276512 
	C164.095947,63.994053 162.866180,64.673241 160.939133,65.774948 
	C160.939133,45.230957 160.939133,25.514267 160.939133,5.278783 
	C154.190826,5.278783 147.906647,5.278783 140.656693,5.278752 
M371.605408,109.777710 
	C371.121613,98.524979 369.198486,87.600449 363.404510,77.750107 
	C353.045624,60.138912 336.508728,53.930714 317.161682,53.257835 
	C289.610657,52.299637 268.257904,67.231171 261.455597,92.967522 
	C257.173584,109.168404 257.353943,125.676178 262.338196,141.768188 
	C266.928741,156.588959 276.484406,167.462326 291.330750,172.482315 
	C298.308594,174.841705 305.899048,175.968018 313.288116,176.427475 
	C338.540802,177.997711 359.442230,164.399948 367.548157,141.693024 
	C371.124817,131.673904 371.946411,121.262810 371.605408,109.777710 
M676.487061,81.254051 
	C686.749817,76.758286 697.422974,74.791405 708.625183,75.959793 
	C716.797852,76.812187 720.568909,80.308319 721.693359,88.416580 
	C721.988953,90.548256 721.935059,92.736969 721.936340,94.899559 
	C721.951294,119.552528 721.945862,144.205505 721.945801,168.858475 
	C721.945801,170.628967 721.945801,172.399445 721.945801,174.130066 
	C731.248779,174.130066 739.923828,174.130066 748.862671,174.130066 
	C748.862671,171.789246 748.862732,169.967926 748.862732,168.146591 
	C748.862732,142.494171 748.891418,116.841675 748.832703,91.189392 
	C748.823547,87.203590 748.578003,83.201561 748.161743,79.236435 
	C746.617859,64.529060 738.284607,56.117981 723.739319,53.981125 
	C710.470093,52.031734 697.884888,54.196796 685.826172,59.762264 
	C681.964233,61.544674 678.305420,63.767288 673.804199,66.192314 
	C673.804199,62.197559 673.804199,58.833710 673.804199,55.631721 
	C664.950012,55.631721 656.725037,55.631721 648.614441,55.631721 
	C648.614441,95.422310 648.614441,134.794296 648.614441,174.268753 
	C657.587952,174.268753 666.143677,174.268753 674.979187,174.268753 
	C674.979187,172.066956 674.979187,170.246170 674.979187,168.425369 
	C674.979187,141.273773 674.964233,114.122154 675.013977,86.970650 
	C675.017212,85.222542 675.520691,83.475342 676.487061,81.254051 
M568.530701,176.064545 
	C577.793274,175.214630 585.726868,171.452621 592.811218,164.051392 
	C593.648621,167.300644 594.091736,169.683395 594.916992,171.925476 
	C595.295593,172.953995 596.401733,174.441589 597.217529,174.467407 
	C603.781128,174.675079 610.354187,174.583679 616.854736,174.583679 
	C616.854736,143.281448 617.331787,112.809013 616.614807,82.364716 
	C616.336426,70.543930 609.290894,61.555008 597.820801,57.628712 
	C577.505676,50.674747 557.177124,52.834740 537.080200,59.095642 
	C536.033325,59.421795 534.572571,60.708656 534.532898,61.602783 
	C534.294067,66.983063 534.414185,72.379280 534.414185,78.142815 
	C536.212585,77.829544 537.170654,77.665840 538.127563,77.495491 
	C550.633545,75.269203 563.176453,74.005226 575.860474,75.903427 
	C582.398438,76.881851 588.031433,79.478409 589.519226,86.426743 
	C590.714233,92.007263 590.665527,97.854065 591.183350,103.750252 
	C587.138367,104.256027 583.992615,104.526924 580.891724,105.059090 
	C569.774780,106.966927 558.289124,107.763214 547.643555,111.169601 
	C523.627014,118.854416 516.136719,149.726578 533.657715,166.998825 
	C543.094299,176.301468 555.210510,177.223358 568.530701,176.064545 
M30.968571,73.485367 
	C28.943354,76.909355 26.530128,80.165047 24.959486,83.786201 
	C17.818710,100.249443 17.685823,117.385101 20.771988,134.708801 
	C23.009220,147.267166 28.607262,158.016022 38.948193,165.814026 
	C56.376831,178.956833 90.269630,180.332748 108.702560,168.711227 
	C109.763466,168.042343 110.914307,166.554291 110.962135,165.403381 
	C111.195351,159.790680 111.067657,154.162979 111.067657,148.150757 
	C109.736877,148.634949 108.799240,148.903427 107.923180,149.305939 
	C97.567406,154.063934 86.715691,155.751709 75.363083,155.002975 
	C61.964325,154.119293 51.643139,147.091293 49.110466,133.916336 
	C47.073017,123.317543 46.289249,111.943741 47.794003,101.316620 
	C50.392021,82.968384 61.488071,74.368790 79.991493,75.100525 
	C89.956787,75.494606 99.838951,77.990936 109.984940,79.574066 
	C109.984940,75.097580 109.789085,69.479813 110.066254,63.885479 
	C110.208244,61.019608 109.176003,59.440266 106.605225,58.822342 
	C98.894958,56.969067 91.237465,54.215054 83.421265,53.616634 
	C63.326603,52.078175 45.006340,56.452808 30.968571,73.485367 
z"/>
<path fill="#51A4D9" opacity="1.000000" stroke="none" 
	d="
M851.567871,122.702171 
	C837.398621,128.528610 823.093140,129.422348 808.598511,126.483177 
	C804.468994,125.645805 802.514832,127.257217 801.299438,130.473358 
	C800.056396,133.762558 802.269104,137.946838 805.788696,138.720169 
	C809.010803,139.428116 812.385925,139.647354 815.699280,139.695572 
	C827.527527,139.867661 839.375610,139.504578 851.182800,140.056808 
	C861.520996,140.540359 871.487122,142.993607 877.965149,152.124634 
	C888.367615,166.787094 882.710083,189.422791 866.727173,198.590347 
	C854.822571,205.418625 841.868835,207.676254 828.393433,208.022568 
	C813.166138,208.413910 798.084106,207.863037 783.778992,201.746628 
	C771.138062,196.341751 765.309875,184.514328 769.727539,173.218872 
	C772.264404,166.732529 777.396118,162.921219 783.422058,160.078827 
	C785.492859,159.102036 787.638000,158.282913 790.532166,157.061264 
	C782.867065,152.788513 777.713013,147.405685 777.972168,138.527390 
	C778.232788,129.598007 785.176758,125.577347 791.379456,120.514503 
	C784.913208,115.599068 779.649902,110.037796 778.022034,102.147171 
	C773.363403,79.566360 781.984314,61.691151 805.330139,56.084850 
	C813.283020,54.175037 821.772888,53.910255 830.015503,53.924992 
	C845.480103,53.952641 860.943176,54.738064 876.407410,55.190430 
	C878.376953,55.248039 880.349731,55.198315 882.707642,55.198315 
	C882.707642,61.151169 882.707642,66.707542 882.707642,72.768402 
	C877.169006,72.768402 871.594055,72.768402 865.133240,72.768402 
	C872.485596,82.569778 871.859436,92.656822 869.092468,102.873306 
	C866.578247,112.156845 860.360046,118.357903 851.567871,122.702171 
M796.495178,169.345215 
	C792.111511,179.490494 795.628174,187.001221 806.898071,188.593201 
	C816.191284,189.905930 825.786499,189.741608 835.199585,189.269073 
	C840.002319,189.027969 844.947205,187.202805 849.378357,185.131882 
	C854.560425,182.710098 856.738281,176.851471 855.761353,171.142380 
	C854.781006,165.412888 850.947998,162.853378 845.611694,162.665756 
	C834.308594,162.268372 822.989075,162.337448 811.685425,161.950699 
	C805.511475,161.739471 800.674744,163.886826 796.495178,169.345215 
M807.838684,105.675056 
	C815.914001,112.266655 825.033813,111.799706 834.328857,109.400208 
	C839.779236,107.993195 843.706177,104.359375 844.319275,98.787125 
	C844.926392,93.269447 844.719727,87.542320 843.966492,82.030533 
	C843.291443,77.090858 839.612671,73.814438 834.968628,72.173660 
	C828.373352,69.843452 821.533203,69.635582 814.882263,71.757515 
	C802.314697,75.767113 798.393860,93.455711 807.838684,105.675056 
z"/>
<path fill="#D73228" opacity="1.000000" stroke="none" 
	d="
M397.820068,147.999969 
	C397.820007,116.914719 397.820007,86.329468 397.820007,55.501060 
	C406.474091,55.501060 414.560089,55.501060 423.265564,55.501060 
	C423.265564,58.707874 423.265564,61.745892 423.265564,65.050148 
	C424.354126,64.827042 424.905853,64.876945 425.215759,64.627007 
	C439.102051,53.428600 454.892456,51.204147 471.809967,55.004494 
	C487.600769,58.551731 497.536499,69.015862 501.891815,83.958031 
	C507.874817,104.484360 508.184937,125.384903 500.983002,145.811554 
	C494.436279,164.379944 480.467682,173.756088 461.300812,176.011093 
	C448.708069,177.492630 436.486847,176.229553 424.294434,169.995636 
	C424.294434,183.483963 424.294434,196.020554 424.294434,208.772308 
	C415.341370,208.772308 406.915375,208.772308 397.820099,208.772308 
	C397.820099,188.639664 397.820099,168.569809 397.820068,147.999969 
M424.249939,127.499886 
	C424.249939,133.488922 424.474518,139.489670 424.163086,145.462479 
	C423.985138,148.875198 425.397705,150.634460 428.229156,151.993149 
	C437.415955,156.401398 447.048248,157.332047 456.926575,155.507568 
	C466.047180,153.823013 472.300720,148.323288 474.931610,139.490799 
	C479.790466,123.178619 479.756683,106.682701 474.807983,90.407722 
	C472.410187,82.521965 466.612671,77.732033 458.429749,76.012344 
	C448.143250,73.850586 438.315369,75.333008 428.722504,79.414345 
	C425.400665,80.827637 424.080505,82.797150 424.152008,86.574844 
	C424.403839,99.879051 424.249969,113.190933 424.249939,127.499886 
z"/>
<path fill="#551514" opacity="1.000000" stroke="none" 
	d="
M141.139587,5.278768 
	C147.906647,5.278783 154.190826,5.278783 160.939133,5.278783 
	C160.939133,25.514267 160.939133,45.230957 160.939133,65.774948 
	C162.866180,64.673241 164.095947,63.994053 165.302917,63.276512 
	C180.036667,54.517281 195.762253,51.067242 212.705002,54.689793 
	C225.576797,57.441925 232.939880,65.792641 234.088669,78.823555 
	C234.512070,83.626236 234.733200,88.461937 234.744186,93.283264 
	C234.805344,120.092865 234.773529,146.902679 234.773529,174.131134 
	C225.861053,174.131134 217.153717,174.131134 207.896225,174.131134 
	C207.896225,172.369858 207.896240,170.594742 207.896240,168.819626 
	C207.896194,144.500656 207.898605,120.181694 207.891541,95.862724 
	C207.890961,93.864548 207.925430,91.858795 207.773819,89.869507 
	C207.074509,80.695175 203.206329,76.873215 194.055405,75.895691 
	C183.883789,74.809128 174.215363,76.720673 164.704376,80.187157 
	C161.707870,81.279312 160.841385,82.927917 160.856216,86.066017 
	C160.985992,113.549171 160.931290,141.033203 160.931290,168.516968 
	C160.931290,170.329849 160.931274,172.142715 160.931274,174.252213 
	C152.038239,174.252213 143.448761,174.252213 134.508759,174.252213 
	C134.508759,118.131142 134.508759,62.093269 134.508759,5.278752 
	C136.477188,5.278752 138.566940,5.278752 141.139587,5.278768 
z"/>
<path fill="#541413" opacity="1.000000" stroke="none" 
	d="
M371.630219,110.247452 
	C371.946411,121.262810 371.124817,131.673904 367.548157,141.693024 
	C359.442230,164.399948 338.540802,177.997711 313.288116,176.427475 
	C305.899048,175.968018 298.308594,174.841705 291.330750,172.482315 
	C276.484406,167.462326 266.928741,156.588959 262.338196,141.768188 
	C257.353943,125.676178 257.173584,109.168404 261.455597,92.967522 
	C268.257904,67.231171 289.610657,52.299637 317.161682,53.257835 
	C336.508728,53.930714 353.045624,60.138912 363.404510,77.750107 
	C369.198486,87.600449 371.121613,98.524979 371.630219,110.247452 
M343.937042,113.602676 
	C343.308777,107.650368 343.038025,101.633720 341.980682,95.758629 
	C339.472382,81.820900 330.924072,74.514175 316.619781,73.534889 
	C303.529236,72.638710 293.214081,79.199249 289.151459,91.976524 
	C284.389801,106.952194 284.603851,122.304665 288.875854,137.286377 
	C292.564453,150.222321 300.427704,155.603607 313.796600,156.248291 
	C326.057587,156.839539 336.030823,151.979019 339.478638,141.417145 
	C342.262634,132.888870 342.545593,123.544144 343.937042,113.602676 
z"/>
<path fill="#94BB41" opacity="1.000000" stroke="none" 
	d="
M676.139282,81.490883 
	C675.520691,83.475342 675.017212,85.222542 675.013977,86.970650 
	C674.964233,114.122154 674.979187,141.273773 674.979187,168.425369 
	C674.979187,170.246170 674.979187,172.066956 674.979187,174.268753 
	C666.143677,174.268753 657.587952,174.268753 648.614441,174.268753 
	C648.614441,134.794296 648.614441,95.422310 648.614441,55.631721 
	C656.725037,55.631721 664.950012,55.631721 673.804199,55.631721 
	C673.804199,58.833710 673.804199,62.197559 673.804199,66.192314 
	C678.305420,63.767288 681.964233,61.544674 685.826172,59.762264 
	C697.884888,54.196796 710.470093,52.031734 723.739319,53.981125 
	C738.284607,56.117981 746.617859,64.529060 748.161743,79.236435 
	C748.578003,83.201561 748.823547,87.203590 748.832703,91.189392 
	C748.891418,116.841675 748.862732,142.494171 748.862732,168.146591 
	C748.862732,169.967926 748.862671,171.789246 748.862671,174.130066 
	C739.923828,174.130066 731.248779,174.130066 721.945801,174.130066 
	C721.945801,172.399445 721.945801,170.628967 721.945801,168.858475 
	C721.945862,144.205505 721.951294,119.552528 721.936340,94.899559 
	C721.935059,92.736969 721.988953,90.548256 721.693359,88.416580 
	C720.568909,80.308319 716.797852,76.812187 708.625183,75.959793 
	C697.422974,74.791405 686.749817,76.758286 676.139282,81.490883 
z"/>
<path fill="#E99A25" opacity="1.000000" stroke="none" 
	d="
M568.095642,176.101196 
	C555.210510,177.223358 543.094299,176.301468 533.657715,166.998825 
	C516.136719,149.726578 523.627014,118.854416 547.643555,111.169601 
	C558.289124,107.763214 569.774780,106.966927 580.891724,105.059090 
	C583.992615,104.526924 587.138367,104.256027 591.183350,103.750252 
	C590.665527,97.854065 590.714233,92.007263 589.519226,86.426743 
	C588.031433,79.478409 582.398438,76.881851 575.860474,75.903427 
	C563.176453,74.005226 550.633545,75.269203 538.127563,77.495491 
	C537.170654,77.665840 536.212585,77.829544 534.414185,78.142815 
	C534.414185,72.379280 534.294067,66.983063 534.532898,61.602783 
	C534.572571,60.708656 536.033325,59.421795 537.080200,59.095642 
	C557.177124,52.834740 577.505676,50.674747 597.820801,57.628712 
	C609.290894,61.555008 616.336426,70.543930 616.614807,82.364716 
	C617.331787,112.809013 616.854736,143.281448 616.854736,174.583679 
	C610.354187,174.583679 603.781128,174.675079 597.217529,174.467407 
	C596.401733,174.441589 595.295593,172.953995 594.916992,171.925476 
	C594.091736,169.683395 593.648621,167.300644 592.811218,164.051392 
	C585.726868,171.452621 577.793274,175.214630 568.095642,176.101196 
M578.837769,156.632355 
	C581.460083,155.597351 584.216431,154.802750 586.657410,153.442368 
	C588.268066,152.544769 590.550354,150.876236 590.603333,149.479691 
	C590.955017,140.214828 590.785400,130.930176 590.785400,120.985008 
	C580.628845,122.365768 570.992310,123.119698 561.621765,125.120010 
	C553.659851,126.819611 550.515747,132.814026 550.868713,142.464050 
	C551.154114,150.267075 555.123108,155.687607 562.738464,156.884384 
	C567.713379,157.666214 572.929138,156.915939 578.837769,156.632355 
z"/>
<path fill="#541413" opacity="1.000000" stroke="none" 
	d="
M31.174465,73.194038 
	C45.006340,56.452808 63.326603,52.078175 83.421265,53.616634 
	C91.237465,54.215054 98.894958,56.969067 106.605225,58.822342 
	C109.176003,59.440266 110.208244,61.019608 110.066254,63.885479 
	C109.789085,69.479813 109.984940,75.097580 109.984940,79.574066 
	C99.838951,77.990936 89.956787,75.494606 79.991493,75.100525 
	C61.488071,74.368790 50.392021,82.968384 47.794003,101.316620 
	C46.289249,111.943741 47.073017,123.317543 49.110466,133.916336 
	C51.643139,147.091293 61.964325,154.119293 75.363083,155.002975 
	C86.715691,155.751709 97.567406,154.063934 107.923180,149.305939 
	C108.799240,148.903427 109.736877,148.634949 111.067657,148.150757 
	C111.067657,154.162979 111.195351,159.790680 110.962135,165.403381 
	C110.914307,166.554291 109.763466,168.042343 108.702560,168.711227 
	C90.269630,180.332748 56.376831,178.956833 38.948193,165.814026 
	C28.607262,158.016022 23.009220,147.267166 20.771988,134.708801 
	C17.685823,117.385101 17.818710,100.249443 24.959486,83.786201 
	C26.530128,80.165047 28.943354,76.909355 31.174465,73.194038 
z"/>
<path fill="#FDFEFF" opacity="1.000000" stroke="none" 
	d="
M796.716125,169.028641 
	C800.674744,163.886826 805.511475,161.739471 811.685425,161.950699 
	C822.989075,162.337448 834.308594,162.268372 845.611694,162.665756 
	C850.947998,162.853378 854.781006,165.412888 855.761353,171.142380 
	C856.738281,176.851471 854.560425,182.710098 849.378357,185.131882 
	C844.947205,187.202805 840.002319,189.027969 835.199585,189.269073 
	C825.786499,189.741608 816.191284,189.905930 806.898071,188.593201 
	C795.628174,187.001221 792.111511,179.490494 796.716125,169.028641 
z"/>
<path fill="#FDFEFF" opacity="1.000000" stroke="none" 
	d="
M807.577576,105.409126 
	C798.393860,93.455711 802.314697,75.767113 814.882263,71.757515 
	C821.533203,69.635582 828.373352,69.843452 834.968628,72.173660 
	C839.612671,73.814438 843.291443,77.090858 843.966492,82.030533 
	C844.719727,87.542320 844.926392,93.269447 844.319275,98.787125 
	C843.706177,104.359375 839.779236,107.993195 834.328857,109.400208 
	C825.033813,111.799706 815.914001,112.266655 807.577576,105.409126 
z"/>
<path fill="#FFFDFD" opacity="1.000000" stroke="none" 
	d="
M424.250000,126.999893 
	C424.249969,113.190933 424.403839,99.879051 424.152008,86.574844 
	C424.080505,82.797150 425.400665,80.827637 428.722504,79.414345 
	C438.315369,75.333008 448.143250,73.850586 458.429749,76.012344 
	C466.612671,77.732033 472.410187,82.521965 474.807983,90.407722 
	C479.756683,106.682701 479.790466,123.178619 474.931610,139.490799 
	C472.300720,148.323288 466.047180,153.823013 456.926575,155.507568 
	C447.048248,157.332047 437.415955,156.401398 428.229156,151.993149 
	C425.397705,150.634460 423.985138,148.875198 424.163086,145.462479 
	C424.474518,139.489670 424.249939,133.488922 424.250000,126.999893 
z"/>
<path fill="#FEFDFD" opacity="1.000000" stroke="none" 
	d="
M343.937561,114.082146 
	C342.545593,123.544144 342.262634,132.888870 339.478638,141.417145 
	C336.030823,151.979019 326.057587,156.839539 313.796600,156.248291 
	C300.427704,155.603607 292.564453,150.222321 288.875854,137.286377 
	C284.603851,122.304665 284.389801,106.952194 289.151459,91.976524 
	C293.214081,79.199249 303.529236,72.638710 316.619781,73.534889 
	C330.924072,74.514175 339.472382,81.820900 341.980682,95.758629 
	C343.038025,101.633720 343.308777,107.650368 343.937561,114.082146 
z"/>
<path fill="#FFFDFB" opacity="1.000000" stroke="none" 
	d="
M578.437378,156.742157 
	C572.929138,156.915939 567.713379,157.666214 562.738464,156.884384 
	C555.123108,155.687607 551.154114,150.267075 550.868713,142.464050 
	C550.515747,132.814026 553.659851,126.819611 561.621765,125.120010 
	C570.992310,123.119698 580.628845,122.365768 590.785400,120.985008 
	C590.785400,130.930176 590.955017,140.214828 590.603333,149.479691 
	C590.550354,150.876236 588.268066,152.544769 586.657410,153.442368 
	C584.216431,154.802750 581.460083,155.597351 578.437378,156.742157 
z"/>
</svg>